<?xml version="1.0" encoding="utf-8"?>
<!-- Generator: Adobe Illustrator 17.0.0, SVG Export Plug-In . SVG Version: 6.00 Build 0)  -->
<!DOCTYPE svg PUBLIC "-//W3C//DTD SVG 1.1//EN" "http://www.w3.org/Graphics/SVG/1.1/DTD/svg11.dtd">
<svg version="1.1" id="Layer_1" xmlns="http://www.w3.org/2000/svg" xmlns:xlink="http://www.w3.org/1999/xlink" x="0px" y="0px"
	 width="179.349px" height="157.987px" viewBox="0 0 179.349 157.987" enable-background="new 0 0 179.349 157.987"
	 xml:space="preserve">
<g>
	<path fill="#9DDCF2" d="M140.716,140.003c0,9.73-22.538,17.617-50.339,17.617c-27.803,0-50.34-7.887-50.34-17.617
		s22.537-17.619,50.34-17.619C118.178,122.383,140.716,130.272,140.716,140.003L140.716,140.003z M140.716,140.003"/>
	<g>
		<defs>
			<path id="SVGID_1_" d="M68.721,171.537c1.117,5.225,3.875,8.312,6.578,10.129l28.803-0.033c3.484-2.365,7.047-6.846,7.047-15.307
				v-21.697c0,0,0.447-5.369,5.369-7.158c0,0,2.906-2.014-0.225-3.131c0,0-13.645-1.123-13.645,10.064v16.553
				c0,0,0.539,6.102-2.684,8.611v-20.429c0,0,0.223-6.486,3.578-8.947c0,0,2.236-4.025-2.684-2.908c0,0-9.394,1.342-9.842,12.303
				l-0.215,20.989h-2.258l-0.213-20.989c-0.447-10.961-9.842-12.303-9.842-12.303c-4.922-1.117-2.684,2.908-2.684,2.908
				c3.355,2.461,3.578,8.947,3.578,8.947v20.663c-3.225-2.281-2.683-8.846-2.683-8.846v-16.553
				c0-11.188-13.645-10.064-13.645-10.064c-3.133,1.117-0.225,3.131-0.225,3.131c4.922,1.789,5.369,7.158,5.369,7.158v15.18
				L68.721,171.537z"/>
		</defs>
		<clipPath id="SVGID_2_">
			<use xlink:href="#SVGID_1_"  overflow="visible"/>
		</clipPath>
		<path clip-path="url(#SVGID_2_)" fill="#7DBCE7" d="M140.716,140.003c0,9.73-22.538,17.617-50.339,17.617
			c-27.803,0-50.34-7.887-50.34-17.617s22.537-17.619,50.34-17.619C118.178,122.383,140.716,130.272,140.716,140.003
			L140.716,140.003z M140.716,140.003"/>
	</g>
	<path fill="#9DDCF2" d="M32.873,88.198L31.42,93.26c0,0-0.378,1.83,1.346,2.154c1.801-0.035,1.653-1.719,1.527-2.266L32.873,88.198
		L32.873,88.198z M32.873,88.198"/>
	<path fill="#000101" d="M179.216,66.971l0.133-0.658c-14.768-2.953-29.922-2.983-39.09-2.602c1.506-5.426,1.959-11.67,1.959-18.633
		c0-9.986-3.752-17.975-9.843-24.054c1.064-3.436,2.486-11.066-1.42-20.833c0,0-6.891-2.188-22.477,8.244
		c-6.105-1.526-12.604-2.279-19.112-2.279c-7.16,0-14.395,0.912-21.143,2.763C52.139-2.057,45.038,0.191,45.038,0.191
		c-4.636,11.59-1.77,20.171-0.899,22.303c-5.448,5.879-8.774,13.384-8.774,22.585c0,6.946,0.792,13.178,2.724,18.594
		C28.843,63.337,14.24,63.465,0,66.313l0.132,0.658c14.325-2.865,29.019-2.965,38.209-2.617c0.426,1.121,0.899,2.209,1.431,3.26
		c-9.088,0.293-24.604,1.451-39.476,5.646l0.183,0.645c14.988-4.227,30.641-5.355,39.641-5.631
		c5.43,10.121,16.135,16.658,35.18,18.711c-2.703,1.816-5.46,4.904-6.578,10.129c-3.684,1.762-15.344,6.062-22.34-5.971
		c0,0-3.916-7.16-11.411-7.721c0,0-7.271-0.111-0.503,4.531c0,0,4.866,2.293,8.223,10.908c0,0,4.379,14.695,25.512,9.98v15.18
		c0,0-0.447,5.369-5.369,7.158c0,0-2.908,2.014,0.225,3.131c0,0,13.645,1.119,13.645-10.065v-16.553c0,0-0.54-6.564,2.683-8.846
		v27.188c0,0-0.223,6.486-3.578,8.947c0,0-2.237,4.025,2.684,2.908c0,0,9.395-1.342,9.842-12.303l0.214-27.514h2.257l0.215,27.514
		c0.447,10.961,9.842,12.303,9.842,12.303c4.92,1.117,2.684-2.908,2.684-2.908c-3.355-2.461-3.578-8.947-3.578-8.947V99.083
		c3.223,2.51,2.684,8.611,2.684,8.611v16.553c0,11.184,13.645,10.065,13.645,10.065c3.131-1.117,0.225-3.131,0.225-3.131
		c-4.922-1.789-5.369-7.158-5.369-7.158v-21.697c0-8.461-3.562-12.941-7.047-15.307c20.311-2.014,30.057-8.572,34.548-18.762
		c8.896,0.244,24.906,1.328,40.221,5.648l0.182-0.645c-15.227-4.295-31.131-5.406-40.117-5.668c0.426-1.029,0.797-2.1,1.127-3.201
		C149.167,64.003,164.39,64.006,179.216,66.971L179.216,66.971z M179.216,66.971"/>
	<path fill="#F5CCB3" d="M122.352,44.608c4.375,3.963,6.934,8.749,6.934,13.905c0,24.075-17.947,24.728-40.084,24.728
		c-22.14,0-40.086-3.334-40.086-24.728c0-5.122,2.523-9.878,6.845-13.825c7.206-6.578,19.404-3.095,33.241-3.095
		C102.983,41.593,115.135,38.075,122.352,44.608L122.352,44.608z M122.352,44.608"/>
	<path fill="#FFFFFF" d="M75.871,59.741c0,6.631-3.734,12.006-8.34,12.006c-4.606,0-8.342-5.375-8.342-12.006
		c0-6.631,3.735-12.004,8.342-12.004C72.137,47.737,75.871,53.11,75.871,59.741L75.871,59.741z M75.871,59.741"/>
	<path fill="#AE5B50" d="M73.195,59.891c0,4.42-2.491,8.002-5.561,8.002c-3.072,0-5.56-3.582-5.56-8.002
		c0-4.422,2.488-8.006,5.56-8.006C70.704,51.885,73.195,55.469,73.195,59.891L73.195,59.891z M73.195,59.891"/>
	<path fill="#FFFFFF" d="M120.618,59.741c0,6.631-3.734,12.006-8.342,12.006c-4.605,0-8.34-5.375-8.34-12.006
		c0-6.631,3.734-12.004,8.34-12.004C116.883,47.737,120.618,53.11,120.618,59.741L120.618,59.741z M120.618,59.741"/>
	<path fill="#AE5B50" d="M117.94,59.891c0,4.42-2.49,8.002-5.561,8.002c-3.07,0-5.561-3.582-5.561-8.002
		c0-4.422,2.49-8.006,5.561-8.006C115.45,51.885,117.94,55.469,117.94,59.891L117.94,59.891z M117.94,59.891"/>
	<path fill="#AE5B50" d="M91.405,70.403c0,1.152-0.934,2.086-2.087,2.086c-1.152,0-2.086-0.934-2.086-2.086s0.934-2.086,2.086-2.086
		C90.471,68.317,91.405,69.251,91.405,70.403L91.405,70.403z M91.405,70.403"/>
	<path fill="#AE5B50" d="M84.459,75.676c-0.123-0.35,0.061-0.732,0.409-0.855c0.349-0.123,0.733,0.061,0.855,0.408
		c0.536,1.516,1.974,2.533,3.577,2.533c1.604,0,3.042-1.018,3.579-2.533c0.123-0.35,0.506-0.531,0.855-0.408
		c0.35,0.123,0.531,0.506,0.408,0.855c-0.725,2.049-2.672,3.426-4.842,3.426C87.131,79.102,85.186,77.725,84.459,75.676
		L84.459,75.676z M84.459,75.676"/>
	<path fill="#C4E5D9" d="M38.215,85.213c0,0.557-0.652,1.006-1.455,1.006c-0.803,0-1.454-0.449-1.454-1.006
		c0-0.557,0.651-1.008,1.454-1.008C37.562,84.206,38.215,84.657,38.215,85.213L38.215,85.213z M38.215,85.213"/>
	<path fill="#C4E5D9" d="M42.242,87.45c0,0.557-0.652,1.008-1.455,1.008s-1.454-0.451-1.454-1.008c0-0.555,0.651-1.006,1.454-1.006
		S42.242,86.895,42.242,87.45L42.242,87.45z M42.242,87.45"/>
	<path fill="#C4E5D9" d="M44.703,90.36c0,0.555-0.651,1.006-1.455,1.006c-0.803,0-1.453-0.451-1.453-1.006
		c0-0.557,0.65-1.008,1.453-1.008C44.052,89.352,44.703,89.803,44.703,90.36L44.703,90.36z M44.703,90.36"/>
	<path fill="#C4E5D9" d="M46.939,93.715c0,0.557-0.65,1.008-1.453,1.008c-0.804,0-1.455-0.451-1.455-1.008s0.651-1.008,1.455-1.008
		C46.289,92.708,46.939,93.159,46.939,93.715L46.939,93.715z M46.939,93.715"/>
	<path fill="#C4E5D9" d="M49.401,96.848c0,0.555-0.651,1.006-1.454,1.006c-0.803,0-1.455-0.451-1.455-1.006
		c0-0.557,0.652-1.008,1.455-1.008C48.75,95.84,49.401,96.292,49.401,96.848L49.401,96.848z M49.401,96.848"/>
	<path fill="#C4E5D9" d="M52.758,99.532c0,0.557-0.651,1.008-1.455,1.008c-0.803,0-1.453-0.451-1.453-1.008
		c0-0.555,0.65-1.006,1.453-1.006C52.106,98.526,52.758,98.977,52.758,99.532L52.758,99.532z M52.758,99.532"/>
	<path fill="#C4E5D9" d="M57.456,101.323c0,0.555-0.651,1.006-1.454,1.006c-0.804,0-1.455-0.451-1.455-1.006
		c0-0.557,0.651-1.008,1.455-1.008C56.805,100.315,57.456,100.766,57.456,101.323L57.456,101.323z M57.456,101.323"/>
	<path fill="#C4E5D9" d="M62.132,101.323c0,0.555-0.651,1.006-1.454,1.006c-0.804,0-1.455-0.451-1.455-1.006
		c0-0.557,0.651-1.008,1.455-1.008C61.48,100.315,62.132,100.766,62.132,101.323L62.132,101.323z M62.132,101.323"/>
	<path fill="#C4E5D9" d="M66.878,100.544c0,0.557-0.651,1.008-1.454,1.008c-0.804,0-1.455-0.451-1.455-1.008
		c0-0.557,0.651-1.008,1.455-1.008C66.227,99.536,66.878,99.987,66.878,100.544L66.878,100.544z M66.878,100.544"/>
</g>
</svg>
